<mxfile host="app.diagrams.net" modified="2024-03-11T02:37:38.451Z" agent="Mozilla/5.0 (Windows NT 10.0; Win64; x64) AppleWebKit/537.36 (KHTML, like Gecko) Chrome/122.0.0.0 Safari/537.36" version="24.0.2" etag="EWhl7An_5rURL5tGcIQc" type="github">
  <diagram name="第 1 页" id="NK9hX-i3OtJOmiP0XZja">
    <mxGraphModel>
      <root>
        <mxCell id="0" />
        <mxCell id="1" parent="0" />
      </root>
    </mxGraphModel>
  </diagram>
</mxfile>
